HIERARCHY
ROOT Hips
{
	OFFSET 0.0000 0.0000 0.0000
	CHANNELS 6 Xposition Yposition Zposition Zrotation Xrotation Yrotation
	JOINT Spine1
	{
		OFFSET -0.0137 5.0038 -0.0537
		CHANNELS 3 Zrotation Xrotation Yrotation
		JOINT Spine2
		{
			OFFSET -0.0000 7.1253 -0.0298
			CHANNELS 3 Zrotation Xrotation Yrotation
			JOINT Chest
			{
				OFFSET -0.0000 7.5501 -0.8160
				CHANNELS 3 Zrotation Xrotation Yrotation
				JOINT Neck1
				{
					OFFSET -0.1817 26.3113 -0.5533
					CHANNELS 3 Zrotation Xrotation Yrotation
					JOINT Neck2
					{
						OFFSET -0.0000 7.7094 2.3026
						CHANNELS 3 Zrotation Xrotation Yrotation
						JOINT Head
						{
							OFFSET -0.0000 6.1289 1.9537
							CHANNELS 3 Zrotation Xrotation Yrotation
							JOINT Jaw
							{
								OFFSET 0.0026 0.4756 3.0949
								CHANNELS 3 Zrotation Xrotation Yrotation
								End Site
								{
									OFFSET 0.0 1.0 0.0
								}
							}
							JOINT LeftEye
							{
								OFFSET 3.2064 5.3802 7.5869
								CHANNELS 3 Zrotation Xrotation Yrotation
								End Site
								{
									OFFSET 0.0 1.0 0.0
								}
							}
							JOINT RightEye
							{
								OFFSET -3.2224 5.3619 7.5582
								CHANNELS 3 Zrotation Xrotation Yrotation
								End Site
								{
									OFFSET 0.0 1.0 0.0
								}
							}
						}
					}
				}
				JOINT LeftShoulder
				{
					OFFSET 1.6217 23.2372 5.1134
					CHANNELS 3 Zrotation Xrotation Yrotation
					JOINT LeftArm
					{
						OFFSET 14.9198 0.0000 -5.5023
						CHANNELS 3 Zrotation Xrotation Yrotation
						JOINT LeftForeArm
						{
							OFFSET 28.7393 0.0000 -0.0026
							CHANNELS 3 Zrotation Xrotation Yrotation
							JOINT LeftHand
							{
								OFFSET 27.0940 -0.0000 0.0026
								CHANNELS 3 Zrotation Xrotation Yrotation
								JOINT LeftHandThumbEnd
								{
									OFFSET 12.2686 -3.2202 4.8331
									CHANNELS 3 Zrotation Xrotation Yrotation
									End Site
									{
										OFFSET 0.0 1.0 0.0
									}
								}
								JOINT LeftHandMiddleEnd
								{
									OFFSET 19.0120 -0.3129 -0.0340
									CHANNELS 3 Zrotation Xrotation Yrotation
									End Site
									{
										OFFSET 0.0 1.0 0.0
									}
								}
							}
						}
					}
				}
				JOINT RightShoulder
				{
					OFFSET -1.3801 23.1803 5.2142
					CHANNELS 3 Zrotation Xrotation Yrotation
					JOINT RightArm
					{
						OFFSET -15.0372 0.0000 -5.5456
						CHANNELS 3 Zrotation Xrotation Yrotation
						JOINT RightForeArm
						{
							OFFSET -28.7366 0.0000 -0.0026
							CHANNELS 3 Zrotation Xrotation Yrotation
							JOINT RightHand
							{
								OFFSET -27.1336 -0.0000 0.0026
								CHANNELS 3 Zrotation Xrotation Yrotation
								JOINT RightHandThumbEnd
								{
									OFFSET -12.2642 -3.2115 4.8040
									CHANNELS 3 Zrotation Xrotation Yrotation
									End Site
									{
										OFFSET 0.0 1.0 0.0
									}
								}
								JOINT RightHandMiddleEnd
								{
									OFFSET -19.0006 -0.3066 -0.0316
									CHANNELS 3 Zrotation Xrotation Yrotation
									End Site
									{
										OFFSET 0.0 1.0 0.0
									}
								}
							}
						}
					}
				}
			}
		}
	}
	JOINT LeftLeg
	{
		OFFSET 10.0432 -8.4345 2.5957
		CHANNELS 3 Zrotation Xrotation Yrotation
		JOINT LeftShin
		{
			OFFSET -0.0000 -43.2218 -0.8029
			CHANNELS 3 Zrotation Xrotation Yrotation
			JOINT LeftFoot
			{
				OFFSET 0.0000 -42.1551 -3.4815
				CHANNELS 3 Zrotation Xrotation Yrotation
				JOINT LeftToeBase
				{
					OFFSET 0.0000 -5.0595 13.2315
					CHANNELS 3 Zrotation Xrotation Yrotation
					End Site
					{
						OFFSET 0.0 1.0 0.0
					}
				}
			}
		}
	}
	JOINT RightLeg
	{
		OFFSET -10.0473 -8.2953 2.6203
		CHANNELS 3 Zrotation Xrotation Yrotation
		JOINT RightShin
		{
			OFFSET 0.0000 -43.3622 -0.8056
			CHANNELS 3 Zrotation Xrotation Yrotation
			JOINT RightFoot
			{
				OFFSET 0.0000 -42.1174 -3.4784
				CHANNELS 3 Zrotation Xrotation Yrotation
				JOINT RightToeBase
				{
					OFFSET -0.0000 -5.0796 13.2842
					CHANNELS 3 Zrotation Xrotation Yrotation
					End Site
					{
						OFFSET 0.0 1.0 0.0
					}
				}
			}
		}
	}
}
MOTION
Frames: 13
Frame Time: 0.033333
-4.7958 100.4649 -1.1078 -0.2578 -4.9824 -0.2133 -0.7892 -1.4465 -0.2180 -0.5744 -5.0199 -0.6894 0.7606 13.3510 -2.6969 -1.0323 -0.4721 2.6109 -1.8270 -3.6317 -4.4835 3.6508 -10.4120 -9.1550 0.0230 0.0447 0.0534 0.6918 -10.3522 -3.7972 -0.6463 -10.4011 3.8938 -25.8382 6.4143 -8.8152 -53.0387 7.5578 -23.1808 0.1495 0.0794 -18.8288 -3.1552 -16.6879 6.1188 -15.9286 10.6698 15.5677 -60.6438 1.5022 2.4502 21.6741 4.9115 13.2662 59.5724 8.6808 27.6664 0.6100 -0.0556 18.0827 -10.9310 -3.6398 4.3924 15.4729 7.2815 -16.2692 49.7403 -3.5609 -5.0943 3.4611 3.8880 6.5973 0.0587 1.9607 -0.0253 -1.2644 -2.2723 -5.2453 1.6539 -0.8069 -1.8814 -1.3586 6.0295 -6.7530 0.0463 1.6891 -0.0336 1.5396 -2.9311 1.4869 -1.4168 -0.7049 0.9875
-4.7285 100.5116 -1.3330 -0.2565 -4.8378 -0.2874 -0.8286 -1.3985 -0.2621 -0.5577 -5.0285 -0.6671 0.8560 13.3365 -2.7176 -1.0653 -0.4350 2.6120 -1.7613 -3.5838 -4.4021 3.6099 -10.6373 -9.1473 0.0274 0.0410 0.0899 0.6884 -10.3377 -3.7594 -0.6339 -10.3974 3.9273 -25.7271 6.4594 -8.8241 -53.0341 7.1295 -22.9973 0.0357 0.0628 -18.7643 -3.1581 -16.9469 6.2079 -15.9622 10.6443 15.5065 -60.6007 1.5515 2.3531 21.7056 4.9072 13.2473 59.4222 8.5476 27.6010 0.5282 -0.0497 18.0242 -10.9611 -3.8190 4.5009 15.5129 7.3130 -16.2863 49.9170 -3.5273 -5.0637 3.3466 3.5518 6.6558 0.0357 2.1838 -0.0781 -1.2421 -2.2969 -5.1492 1.6560 -0.7948 -1.9093 -1.3516 5.7778 -6.5607 0.0391 1.6879 -0.0286 1.4458 -2.9246 1.4535 -1.4242 -0.7757 0.9782
-4.6007 100.5456 -1.5348 -0.2173 -4.5786 -0.4479 -0.8867 -1.3717 -0.3053 -0.5625 -5.0512 -0.6906 0.9911 13.3424 -2.6943 -1.0769 -0.4311 2.6003 -1.6830 -3.5845 -4.3448 3.5726 -10.8020 -9.1299 0.0315 0.0375 0.1099 0.6815 -10.3559 -3.7402 -0.6191 -10.4215 3.9462 -25.5652 6.4656 -8.8683 -53.1015 6.7512 -22.8245 -0.0834 0.0301 -18.7115 -3.1103 -17.4022 6.3371 -15.9831 10.6609 15.5128 -60.5638 1.5516 2.4010 21.7288 4.9023 13.2212 59.2399 8.4269 27.5978 0.4227 -0.0546 17.9952 -11.1567 -4.2098 4.6443 15.5276 7.3487 -16.2682 49.9811 -3.4867 -5.0430 3.1581 2.9117 6.7518 0.0198 2.7478 -0.1248 -1.1307 -2.4291 -5.0374 1.6622 -0.7567 -1.9180 -1.3893 5.1258 -6.2821 0.0305 2.1705 -0.0399 1.3672 -3.1165 1.3692 -1.4264 -0.7813 0.9936
-4.3743 100.5609 -1.7932 -0.1650 -4.1779 -0.7586 -0.9797 -1.3369 -0.3339 -0.5764 -5.0742 -0.7303 1.1692 13.3145 -2.6330 -1.0608 -0.5250 2.5757 -1.5952 -3.5932 -4.1941 3.6035 -11.0534 -9.0877 0.0304 0.0375 0.1079 0.6734 -10.3894 -3.7444 -0.6138 -10.4602 3.9464 -25.3285 6.4890 -8.9054 -53.2401 6.4156 -22.7897 -0.1646 0.0071 -18.5827 -3.0058 -17.9669 6.4078 -15.9709 10.6905 15.5210 -60.5389 1.5453 2.4319 21.6747 4.9237 13.2231 59.0805 8.1637 27.5564 0.3367 -0.0618 18.0324 -11.3848 -4.7245 4.8286 15.5022 7.3759 -16.2356 49.9544 -3.4662 -5.0100 2.9309 1.9060 6.9685 0.0048 3.7017 -0.1566 -0.9657 -2.6902 -4.8668 1.6682 -0.7210 -1.9110 -1.4335 3.8488 -5.9376 0.0204 3.4866 -0.0509 1.2854 -3.6493 1.3253 -1.4250 -0.8007 0.9978
-4.0967 100.5538 -2.0648 -0.0836 -3.5874 -1.2310 -1.1229 -1.3068 -0.3366 -0.5961 -5.0732 -0.7609 1.3236 13.2094 -2.5827 -0.9528 -0.7595 2.4983 -1.5084 -3.5769 -3.9664 3.7669 -11.4281 -9.0224 0.0295 0.0435 0.1084 0.6670 -10.3987 -3.7447 -0.6097 -10.4667 3.9469 -24.9964 6.5171 -8.9293 -53.4472 6.1015 -22.7953 -0.2143 0.0117 -18.3645 -2.8592 -18.5882 6.4435 -15.9349 10.6946 15.4708 -60.4891 1.5311 2.4018 21.5243 4.9239 13.2625 59.0150 7.7241 27.4507 0.2980 -0.0541 18.0880 -11.5656 -5.3309 5.0452 15.4468 7.3862 -16.1785 49.8716 -3.4468 -4.9634 2.6756 0.5287 7.3569 -0.0132 4.9344 -0.1943 -0.8272 -2.9888 -4.7111 1.6773 -0.6882 -1.9023 -1.4898 1.9250 -5.5666 0.0155 5.5776 -0.0423 1.2202 -4.4653 1.4207 -1.4255 -0.8614 1.0076
-3.8845 100.5298 -2.4152 -0.0051 -2.8064 -1.9734 -1.2967 -1.2654 -0.3277 -0.5994 -5.0643 -0.7858 1.3942 13.0157 -2.5352 -0.7266 -1.1482 2.4098 -1.4534 -3.5744 -3.7427 4.0175 -11.7902 -8.8889 0.0271 0.0479 0.1041 0.6660 -10.4006 -3.7513 -0.6138 -10.4670 3.9449 -24.5605 6.5576 -8.9321 -53.6990 5.7881 -22.7315 -0.2785 0.0218 -18.0676 -2.6863 -19.0731 6.3339 -15.8642 10.7125 15.4356 -60.4472 1.5226 2.3316 21.3183 4.8583 13.3077 59.0541 7.2166 27.4806 0.3043 -0.0441 18.1143 -11.7544 -5.6342 5.2028 15.3822 7.4132 -16.1143 49.7638 -3.4265 -4.9201 2.4450 -1.0712 7.9928 -0.0370 6.1413 -0.2030 -0.7777 -3.1863 -4.5846 1.6899 -0.6730 -1.9026 -1.5334 -0.4426 -5.1892 0.0191 8.0049 -0.0068 1.1551 -5.3834 1.7407 -1.4230 -1.0306 1.0316
-3.7529 100.4960 -2.8668 -0.0158 -1.8883 -2.9802 -1.4431 -1.1939 -0.3336 -0.5665 -5.0023 -0.8415 1.4535 12.7007 -2.3702 -0.4894 -1.7333 2.3835 -1.4195 -3.5904 -3.6109 4.2870 -12.0866 -8.6931 0.0230 0.0424 0.1104 0.6541 -10.3955 -3.7492 -0.6107 -10.4633 3.9559 -24.0721 6.5951 -8.9883 -54.0358 5.6452 -22.7076 -0.1777 0.0626 -17.7654 -2.6290 -19.8323 6.2531 -15.8532 10.6337 15.2865 -60.4201 1.4651 2.2499 21.0221 4.8215 13.2670 59.1913 6.4171 27.5430 0.3347 0.0007 17.9388 -12.0581 -5.4198 5.5633 15.3046 7.3215 -16.0108 49.3938 -3.5621 -4.8810 2.3375 -2.7568 8.8523 -0.0880 7.1597 -0.2020 -0.9932 -3.2045 -4.3393 1.7000 -0.5760 -1.8671 -1.5370 -3.0383 -4.6830 0.0528 10.5734 0.0626 0.9335 -6.1523 1.8958 -1.4042 -1.6732 0.9590
-3.7093 100.6175 -3.3604 -0.2442 -1.0440 -4.0904 -1.4168 -1.1150 -0.3971 -0.4982 -4.9049 -0.6901 1.4792 12.4615 -2.3667 -0.3798 -2.3560 2.4470 -1.4500 -3.6044 -3.4553 4.5294 -12.5344 -8.7759 0.0268 0.0676 0.1280 0.6819 -10.3815 -3.7305 -0.6310 -10.4601 3.9700 -23.6421 6.5550 -9.1673 -54.1857 5.3775 -22.0232 -0.3038 0.0687 -17.7296 -2.5915 -20.0470 6.1960 -15.8144 10.6080 15.3031 -60.3674 1.4549 2.2853 20.5326 4.7503 13.2766 59.5429 5.5278 27.3979 0.2687 0.0360 17.9939 -12.4336 -5.1949 5.9147 15.3063 7.3519 -15.9915 49.4185 -3.4475 -4.8602 2.4773 -4.3127 9.5907 -0.0681 8.0678 -0.2213 -1.3902 -3.3328 -3.7311 1.6957 -0.2563 -1.8662 -1.5908 -5.6040 -4.3620 0.1365 13.3117 0.1520 0.1992 -7.2026 1.5077 -1.4419 -2.0800 0.9772
-3.7714 100.6497 -3.8039 -0.5779 -0.4083 -5.1840 -1.3053 -0.9896 -0.4458 -0.4637 -4.7978 -0.6202 1.6063 12.2462 -2.3556 -0.3918 -2.7810 2.4951 -1.4607 -3.6176 -3.5009 4.6758 -12.8827 -8.7786 0.0191 0.0742 0.1017 0.6797 -10.3761 -3.7492 -0.6443 -10.4543 3.9368 -23.1837 6.3684 -9.2899 -54.4977 5.3212 -21.3606 -0.3852 0.0654 -17.5212 -2.5119 -20.3349 6.0592 -15.7546 10.6557 15.3287 -60.4041 1.4756 2.2597 20.0194 4.6986 13.3041 59.7739 4.8074 27.2502 0.2554 0.0404 18.1150 -12.7917 -5.2475 6.0549 15.2935 7.3587 -15.9618 49.3810 -3.4182 -4.8410 2.8074 -5.6315 10.0359 -0.0581 8.9143 -0.2289 -1.7850 -3.4872 -3.1096 1.6994 -0.1029 -1.8184 -2.1313 -7.8732 -4.0606 0.1510 16.3319 0.2115 -0.3244 -8.1118 -0.0097 -1.4541 -2.2651 0.9458
-3.9243 100.6699 -4.1395 -0.9192 -0.0945 -6.1554 -1.1959 -0.8490 -0.4823 -0.4276 -4.6958 -0.6093 1.7782 12.1340 -2.3618 -0.4039 -2.9731 2.5032 -1.4483 -3.6145 -3.5458 4.7322 -12.9803 -8.8209 0.0126 0.0784 0.0808 0.6773 -10.3880 -3.7666 -0.6552 -10.4641 3.9121 -22.8737 6.2392 -9.3900 -54.6733 5.3283 -20.7353 -0.4098 0.0391 -17.2633 -2.4321 -20.4050 5.9022 -15.7952 10.7169 15.3783 -60.4937 1.5137 2.2277 19.6797 4.6632 13.2902 59.7250 4.4380 27.1670 0.2484 0.0395 18.2662 -13.0806 -5.3730 6.1030 15.2902 7.3709 -15.9732 49.3827 -3.3787 -4.8189 3.2391 -6.4605 10.2541 -0.0432 9.5782 -0.2301 -2.1226 -3.6717 -2.4731 1.7000 -0.0277 -1.8074 -3.3393 -9.4191 -3.5537 0.1551 18.8705 0.2852 -0.5423 -8.6175 -1.8078 -1.4618 -2.3730 0.9066
-4.2218 100.6583 -4.3677 -1.2801 -0.0244 -6.9432 -1.1014 -0.7655 -0.4874 -0.3846 -4.5991 -0.6531 1.9970 12.0924 -2.3952 -0.2952 -2.9289 2.4348 -1.4372 -3.5953 -3.5663 4.7141 -12.8011 -8.9524 0.0081 0.0861 0.0749 0.6731 -10.4028 -3.7707 -0.6602 -10.4727 3.9036 -22.6189 6.1239 -9.4930 -54.8115 5.3968 -20.1329 -0.3917 0.0070 -16.9571 -2.3168 -20.2825 5.6835 -15.8575 10.7819 15.4066 -60.5302 1.5584 2.1918 19.5795 4.6548 13.1872 59.3654 4.4211 27.1581 0.2457 0.0334 18.4104 -13.2717 -5.5273 6.0174 15.3090 7.3709 -15.9863 49.4005 -3.3504 -4.8005 3.8204 -6.9914 10.2109 -0.0258 10.2809 -0.2296 -2.4362 -3.9545 -1.8612 1.6953 0.0475 -1.8259 -5.1605 -10.1138 -2.6614 0.1701 20.4778 0.4017 -0.7140 -8.6690 -3.5411 -1.4706 -2.4116 0.8832
-4.6752 100.6093 -4.4911 -1.6908 -0.1430 -7.4675 -1.0004 -0.7482 -0.4575 -0.3334 -4.5449 -0.7447 2.2443 12.1290 -2.4537 -0.0075 -2.6913 2.3031 -1.4451 -3.5873 -3.6678 4.6289 -12.4243 -9.0833 0.0056 0.0912 0.0772 0.6669 -10.4306 -3.7689 -0.6591 -10.4922 3.9046 -22.3799 6.0181 -9.6129 -54.9056 5.5673 -19.5708 -0.3669 -0.0236 -16.7205 -2.2190 -20.1859 5.4166 -15.9209 10.8269 15.4487 -60.5650 1.5864 2.1754 19.7425 4.7038 13.0262 58.7581 4.5529 26.9799 0.2645 0.0226 18.5178 -13.4288 -5.5775 5.8097 15.2990 7.3679 -15.9969 49.3892 -3.3190 -4.7545 4.6030 -7.4074 9.9843 -0.0072 11.2135 -0.2426 -2.7719 -4.3852 -1.4010 1.6881 0.0977 -1.8603 -7.2792 -9.9108 -1.4422 0.1889 20.9360 0.5409 -0.9209 -8.2400 -4.9491 -1.4866 -2.4819 0.8855
-5.2618 100.5353 -4.5005 -2.1636 -0.3810 -7.7345 -0.8961 -0.8034 -0.3902 -0.2792 -4.5320 -0.8692 2.5205 12.2212 -2.5299 0.4425 -2.3328 2.0766 -1.4951 -3.5900 -3.7599 4.5150 -11.9237 -9.2916 0.0028 0.0936 0.0830 0.6601 -10.4507 -3.7626 -0.6580 -10.5017 3.9084 -22.1295 5.9541 -9.7364 -54.9580 5.8745 -19.2312 -0.3108 -0.0540 -16.5460 -2.2577 -19.9990 5.1989 -16.0126 10.8788 15.5264 -60.6460 1.6194 2.1743 20.1333 4.7805 12.8088 58.0638 4.7316 26.5868 0.2354 0.0185 18.5157 -13.4781 -5.4832 5.4955 15.3058 7.3866 -16.0245 49.4182 -3.2971 -4.6664 5.6116 -7.7917 9.6462 0.0047 12.3960 -0.2512 -3.1925 -4.9476 -1.1734 1.6811 0.1559 -1.8948 -9.3791 -8.9413 -0.1983 0.1934 20.3195 0.6582 -1.1667 -7.3914 -5.9872 -1.5065 -2.5521 0.8946
